<?xml version="1.0" encoding="UTF-8" standalone="no"?>
<svg
   viewBox="0 0 26 26"
   version="1.1"
   id="svg8"
   sodipodi:docname="Aide Box Build.svg"
   width="26"
   height="26"
   inkscape:version="1.1.2 (b8e25be833, 2022-02-05)"
   xmlns:inkscape="http://www.inkscape.org/namespaces/inkscape"
   xmlns:sodipodi="http://sodipodi.sourceforge.net/DTD/sodipodi-0.dtd"
   xmlns="http://www.w3.org/2000/svg"
   xmlns:svg="http://www.w3.org/2000/svg">
  <defs
     id="defs12" />
  <sodipodi:namedview
     id="namedview10"
     pagecolor="#ffffff"
     bordercolor="#666666"
     borderopacity="1.0"
     inkscape:pageshadow="2"
     inkscape:pageopacity="0.0"
     inkscape:pagecheckerboard="0"
     showgrid="false"
     inkscape:zoom="1.4042969"
     inkscape:cx="256"
     inkscape:cy="255.64395"
     inkscape:window-width="2560"
     inkscape:window-height="1377"
     inkscape:window-x="-8"
     inkscape:window-y="-8"
     inkscape:window-maximized="1"
     inkscape:current-layer="svg8" />
  <path
     d="M 0,0 H 26 V 26 H 0 Z"
     fill="#000000"
     fill-opacity="1"
     id="path2"
     style="stroke-width:1" />
  <g
     class=""
     style="stroke-width:19.6923"
     transform="scale(0.05078125)"
     id="g6">
    <path
       d="m 172.416,41.021 c -39.47,0.351 -78.748,5.972 -114.732,14.827 10.094,15.264 27.17,26.95 46.898,34.865 23.65,9.488 50.72,13.333 70.959,12.299 20.826,-1.065 47.765,-9.524 68.764,-21.008 10.5,-5.742 19.542,-12.245 25.652,-18.5 3.24,-3.317 5.517,-6.486 6.99,-9.316 C 246.073,45.41 213.251,41.323 180.312,41.021 a 438.026,438.026 0 0 0 -7.896,0 z m 111.541,33.877 c -0.372,0.396 -0.743,0.793 -1.125,1.184 -7.888,8.075 -18.231,15.34 -29.889,21.715 -23.314,12.75 -51.772,21.928 -76.484,23.191 -23.227,1.188 -52.158,-2.967 -78.58,-13.568 C 79.785,100.16 62.69,89.769 50.117,75.547 33.802,206.86 19.325,353.169 39.992,473.012 59.59,479.175 80.984,483.837 103,486.962 V 423 h 64 v -64 h 109.957 c -0.024,-3.013 0.152,-6.295 0.486,-9.97 0.96,-10.546 3.217,-24.018 6.338,-39.007 5.408,-25.967 13.412,-56.318 21.948,-82.152 -4.95,-49.133 -12.133,-100.876 -21.772,-152.973 z m 152.682,0.59 c -0.909,0.002 -1.93,0.107 -2.87,0.137 l -56.949,71.28 c 7.692,2.471 14.598,7.387 19.639,14.052 l 55.268,-66.045 c 0.901,-2.06 0.935,-7.813 -2.174,-12.293 -2.433,-3.505 -5.967,-6.446 -12.051,-7.092 -0.27,-0.028 -0.56,-0.04 -0.863,-0.039 z m -69.506,87.742 a 31.857,31.857 0 0 0 -4.278,6.745 c -3.85,8.26 -4.52,17.07 -3.816,24.61 l 0.022,0.224 3.507,24.408 a 201.33,201.33 0 0 0 -5.46,0.586 c -11.149,1.362 -23.392,3.885 -31.805,6.601 -9.124,26.31 -18.124,59.552 -23.9,87.29 -3.034,14.562 -5.182,27.607 -6.034,36.966 -0.268,2.945 -0.188,4.657 -0.203,6.729 2.338,-1.204 5.048,-2.731 8.326,-4.871 9.674,-6.317 22.502,-16.22 36.13,-27.565 25.535,-21.259 53.706,-47.399 71.997,-65.816 -2.982,-7.624 -8.213,-16.243 -13.951,-23.516 -6.682,-8.469 -14.49,-15.144 -16.53,-16.408 -0.057,0.008 -0.262,-0.026 -0.392,-0.04 l -3.783,-26.323 c -0.448,-4.91 0.237,-11.044 2.207,-15.27 0.975,-2.092 2.012,-3.727 3.46,-4.951 -3.847,-5.382 -9.725,-8.894 -15.497,-9.399 z M 377,313 v 46 h 110 v -46 z m -192,64 v 46 h 110 v -46 z m 128,0 v 46 h 110 v -46 z m 128,0 v 46 h 46 v -46 z m -320,64 v 46 h 110 v -46 z m 128,0 v 46 h 110 v -46 z m 128,0 v 46 h 110 v -46 z"
       fill="#ffffff"
       fill-opacity="1"
       id="path4"
       style="stroke-width:87.3866" />
  </g>
</svg>
