<?xml version="1.0" encoding="UTF-8" standalone="no"?>
<svg
   viewBox="0 0 26 26"
   version="1.1"
   id="svg8"
   sodipodi:docname="factory.svg"
   width="26"
   height="26"
   inkscape:version="1.1.2 (b8e25be833, 2022-02-05)"
   xmlns:inkscape="http://www.inkscape.org/namespaces/inkscape"
   xmlns:sodipodi="http://sodipodi.sourceforge.net/DTD/sodipodi-0.dtd"
   xmlns="http://www.w3.org/2000/svg"
   xmlns:svg="http://www.w3.org/2000/svg">
  <defs
     id="defs12" />
  <sodipodi:namedview
     id="namedview10"
     pagecolor="#ffffff"
     bordercolor="#666666"
     borderopacity="1.0"
     inkscape:pageshadow="2"
     inkscape:pageopacity="0.0"
     inkscape:pagecheckerboard="0"
     showgrid="false"
     inkscape:zoom="1.4042969"
     inkscape:cx="256"
     inkscape:cy="255.64395"
     inkscape:window-width="2560"
     inkscape:window-height="1377"
     inkscape:window-x="-8"
     inkscape:window-y="-8"
     inkscape:window-maximized="1"
     inkscape:current-layer="svg8" />
  <path
     d="M 0,0 H 26 V 26 H 0 Z"
     fill="#000000"
     fill-opacity="1"
     id="path2"
     style="stroke-width:1" />
  <g
     class=""
     id="g6"
     transform="scale(0.05078125)"
     style="stroke-width:19.6923">
    <path
       d="m 384,64 0.387,256 H 368 L 272,192 256,320 160,192 144,320 48,192 32,320 V 480 H 480 V 64 H 448 V 320 H 416 V 64 Z M 64,352 h 48 v 32 H 64 Z m 80,0 h 48 v 32 h -48 z m 80,0 h 48 v 32 h -48 z m 80,0 h 48 v 32 H 304 Z M 64,416 h 48 v 32 H 64 Z m 80,0 h 48 v 32 h -48 z m 80,0 h 48 v 32 h -48 z m 80,0 h 48 v 32 h -48 z"
       fill="#ffffff"
       fill-opacity="1"
       id="path4"
       style="stroke-width:87.3866" />
  </g>
</svg>
