<?xml version="1.0" encoding="UTF-8" standalone="no"?>
<svg
   viewBox="0 0 26 26"
   version="1.1"
   id="svg8"
   sodipodi:docname="Army Box Train 26x26.svg"
   width="26"
   height="26"
   inkscape:version="1.1.2 (b8e25be833, 2022-02-05)"
   xmlns:inkscape="http://www.inkscape.org/namespaces/inkscape"
   xmlns:sodipodi="http://sodipodi.sourceforge.net/DTD/sodipodi-0.dtd"
   xmlns="http://www.w3.org/2000/svg"
   xmlns:svg="http://www.w3.org/2000/svg">
  <defs
     id="defs12" />
  <sodipodi:namedview
     id="namedview10"
     pagecolor="#ffffff"
     bordercolor="#666666"
     borderopacity="1.0"
     inkscape:pageshadow="2"
     inkscape:pageopacity="0.0"
     inkscape:pagecheckerboard="0"
     showgrid="false"
     inkscape:zoom="1.4042969"
     inkscape:cx="256"
     inkscape:cy="255.64395"
     inkscape:window-width="2560"
     inkscape:window-height="1377"
     inkscape:window-x="-8"
     inkscape:window-y="-8"
     inkscape:window-maximized="1"
     inkscape:current-layer="svg8" />
  <path
     d="M 0,0 H 26 V 26 H 0 Z"
     fill="#000000"
     fill-opacity="1"
     id="path2"
     style="stroke-width:1" />
  <g
     class=""
     style="stroke-width:19.6923"
     transform="scale(0.05078125)"
     id="g6">
    <path
       d="m 256,24 c -67.8,0 -111.5,43.46 -132.4,97.8 -20,52 -20.8,114.2 -6.1,163.5 l 14.2,-16.1 C 121.6,225.7 123.6,172 140.4,128.2 159.5,78.54 195.7,42 256,42 c 60.2,0 96.5,36.54 115.6,86.2 16.8,43.8 18.8,97.5 8.7,141 l 14.2,16.1 C 409.2,236 408.4,173.8 388.4,121.8 367.5,67.46 323.8,24 256,24 Z m 0,92.8 c -18.2,0 -34.2,17.8 -34.2,41.6 0,23.8 16,41.6 34.2,41.6 18.2,0 34.2,-17.8 34.2,-41.6 0,-23.8 -16,-41.6 -34.2,-41.6 z M 231.3,211 c -17.3,3.8 -31.3,10.2 -33.9,11.4 l -74.6,84 8.3,16.6 85.9,-68.7 V 417 h 30 v -64 h 18 v 135 h 30 V 254.3 l 85.9,68.7 8.3,-16.6 -74.6,-84 C 312,221.2 298,214.8 280.7,211 c -7.3,4.4 -15.7,7 -24.7,7 -9,0 -17.4,-2.6 -24.7,-7 z"
       fill="#ffffff"
       fill-opacity="1"
       id="path4"
       style="stroke-width:87.3866" />
  </g>
</svg>
