<?xml version="1.0" encoding="UTF-8" standalone="no"?>
<svg
   viewBox="0 0 26 26"
   version="1.1"
   id="svg8"
   sodipodi:docname="Army Muster 26x26.svg"
   width="26"
   height="26"
   inkscape:version="1.1.2 (b8e25be833, 2022-02-05)"
   xmlns:inkscape="http://www.inkscape.org/namespaces/inkscape"
   xmlns:sodipodi="http://sodipodi.sourceforge.net/DTD/sodipodi-0.dtd"
   xmlns="http://www.w3.org/2000/svg"
   xmlns:svg="http://www.w3.org/2000/svg">
  <defs
     id="defs12" />
  <sodipodi:namedview
     id="namedview10"
     pagecolor="#ffffff"
     bordercolor="#666666"
     borderopacity="1.0"
     inkscape:pageshadow="2"
     inkscape:pageopacity="0.0"
     inkscape:pagecheckerboard="0"
     showgrid="false"
     inkscape:zoom="1.4042969"
     inkscape:cx="256"
     inkscape:cy="255.64395"
     inkscape:window-width="2560"
     inkscape:window-height="1377"
     inkscape:window-x="-8"
     inkscape:window-y="-8"
     inkscape:window-maximized="1"
     inkscape:current-layer="svg8" />
  <path
     d="M 0,0 H 26 V 26 H 0 Z"
     fill="#000000"
     fill-opacity="1"
     id="path2"
     style="stroke-width:1" />
  <g
     class=""
     style="stroke-width:19.6923"
     transform="scale(0.05078125)"
     id="g6">
    <path
       d="m 89.045,14.615 c 6.77,31.628 8.796,63.257 0.937,94.885 H 27.695 v 25.783 c 14.904,-4.855 30.023,-7.95 45.23,-9.543 0.047,127.8 1.575,243.702 30.27,365.713 30.09,-118.464 27.335,-237.957 27.258,-365.027 15.218,1.827 30.365,4.857 45.315,8.857 V 109.5 h -62.12 c -6.642,-31.628 -5.722,-63.257 0.768,-94.885 h -25.37 z m 334.61,0.004 c -28.694,122.01 -30.224,237.912 -30.272,365.712 -15.206,-1.59 -30.325,-4.687 -45.23,-9.543 v 25.782 h 62.288 c 7.86,31.628 5.837,63.257 -0.934,94.885 h 25.37 c -6.49,-31.628 -7.41,-63.257 -0.77,-94.885 h 62.12 v -25.78 c -14.95,4 -30.094,7.027 -45.312,8.855 0.077,-127.07 2.833,-246.562 -27.258,-365.026 z M 255.34,23.36 c -25.084,3.247 -47.137,32.07 -47.137,68.892 0,20.31 7.048,38.302 17.48,50.816 l 10.202,12.24 -15.66,2.928 c -13.684,2.56 -23.8,9.845 -32.27,21.42 -8.47,11.576 -14.848,27.52 -19.31,45.8 -8.22,33.672 -9.91,74.718 -10.137,110.554 h 43.994 l 11.88,158.584 h 96.356 L 321.246,336.01 h 41.87 c -0.013,-36.225 -0.356,-77.82 -7.803,-111.752 -4.04,-18.408 -10.17,-34.354 -18.762,-45.822 -8.592,-11.47 -19.2,-18.7 -34.482,-21.057 L 286.089,154.913 296.2,142.3 c 9.983,-12.452 16.68,-30.23 16.68,-50.048 0,-39.264 -24.734,-68.813 -52.34,-68.813 -2.905,0 -4.742,-0.137 -5.196,-0.08 H 255.34 Z M 97.006,124.44 c 4.69,-0.02 9.383,0.093 14.074,0.328 V 305.783 H 92.383 v -181.28 c 1.54,-0.034 3.082,-0.055 4.623,-0.062 z m 315.838,75.847 h 18.695 v 181.018 c -6.233,0.31 -12.467,0.404 -18.696,0.26 V 200.288 Z"
       fill="#ffffff"
       fill-opacity="1"
       id="path4"
       style="stroke-width:87.3866" />
  </g>
</svg>
